<svg xmlns="http://www.w3.org/2000/svg" xmlns:xlink="http://www.w3.org/1999/xlink" width="500" zoomAndPan="magnify" viewBox="0 0 375 374.999991" height="500" preserveAspectRatio="xMidYMid meet" version="1.0"><defs><clipPath id="421bb01bef"><path d="M 10.257812 5.753906 L 369.507812 5.753906 L 369.507812 365.003906 L 10.257812 365.003906 Z M 10.257812 5.753906 " clip-rule="nonzero"/></clipPath></defs><g clip-path="url(#421bb01bef)"><path fill="#000000" d="M 369.574219 185.410156 C 369.574219 188.351562 369.5 191.289062 369.355469 194.226562 C 369.210938 197.164062 368.996094 200.09375 368.707031 203.019531 C 368.417969 205.945312 368.058594 208.863281 367.628906 211.769531 C 367.195312 214.679688 366.695312 217.574219 366.121094 220.460938 C 365.546875 223.34375 364.902344 226.210938 364.1875 229.0625 C 363.472656 231.914062 362.691406 234.75 361.835938 237.5625 C 360.984375 240.375 360.0625 243.167969 359.070312 245.933594 C 358.078125 248.703125 357.023438 251.445312 355.898438 254.160156 C 354.773438 256.878906 353.582031 259.566406 352.324219 262.222656 C 351.066406 264.882812 349.746094 267.507812 348.359375 270.101562 C 346.972656 272.691406 345.523438 275.25 344.011719 277.773438 C 342.5 280.292969 340.929688 282.777344 339.292969 285.222656 C 337.660156 287.667969 335.96875 290.070312 334.21875 292.429688 C 332.464844 294.792969 330.65625 297.109375 328.792969 299.382812 C 326.925781 301.65625 325.007812 303.882812 323.03125 306.058594 C 321.058594 308.238281 319.03125 310.367188 316.953125 312.445312 C 314.875 314.527344 312.746094 316.550781 310.566406 318.527344 C 308.386719 320.5 306.160156 322.421875 303.890625 324.285156 C 301.617188 326.152344 299.296875 327.960938 296.9375 329.710938 C 294.574219 331.464844 292.171875 333.15625 289.726562 334.789062 C 287.28125 336.421875 284.800781 337.996094 282.277344 339.507812 C 279.753906 341.019531 277.199219 342.46875 274.605469 343.851562 C 272.011719 345.238281 269.386719 346.5625 266.730469 347.816406 C 264.070312 349.074219 261.382812 350.265625 258.667969 351.390625 C 255.949219 352.515625 253.207031 353.574219 250.441406 354.566406 C 247.671875 355.554688 244.882812 356.476562 242.066406 357.332031 C 239.253906 358.183594 236.421875 358.96875 233.570312 359.683594 C 230.714844 360.398438 227.847656 361.042969 224.964844 361.613281 C 222.082031 362.1875 219.183594 362.691406 216.277344 363.121094 C 213.367188 363.554688 210.453125 363.914062 207.523438 364.203125 C 204.597656 364.488281 201.667969 364.707031 198.730469 364.851562 C 195.792969 364.996094 192.855469 365.066406 189.914062 365.066406 C 186.976562 365.066406 184.035156 364.996094 181.101562 364.851562 C 178.164062 364.707031 175.230469 364.488281 172.304688 364.203125 C 169.378906 363.914062 166.464844 363.554688 163.554688 363.121094 C 160.644531 362.691406 157.75 362.1875 154.867188 361.613281 C 151.984375 361.042969 149.113281 360.398438 146.261719 359.683594 C 143.410156 358.96875 140.578125 358.183594 137.765625 357.332031 C 134.949219 356.476562 132.160156 355.554688 129.390625 354.566406 C 126.621094 353.574219 123.878906 352.515625 121.164062 351.390625 C 118.449219 350.265625 115.761719 349.074219 113.101562 347.816406 C 110.445312 346.5625 107.820312 345.238281 105.226562 343.851562 C 102.632812 342.46875 100.074219 341.019531 97.554688 339.507812 C 95.03125 337.996094 92.546875 336.421875 90.105469 334.789062 C 87.660156 333.15625 85.253906 331.464844 82.894531 329.710938 C 80.53125 327.960938 78.214844 326.152344 75.941406 324.285156 C 73.667969 322.421875 71.445312 320.5 69.265625 318.527344 C 67.085938 316.550781 64.957031 314.527344 62.878906 312.445312 C 60.800781 310.367188 58.773438 308.238281 56.796875 306.058594 C 54.824219 303.882812 52.902344 301.65625 51.039062 299.382812 C 49.171875 297.109375 47.367188 294.792969 45.613281 292.429688 C 43.863281 290.070312 42.171875 287.667969 40.535156 285.222656 C 38.902344 282.777344 37.332031 280.292969 35.820312 277.773438 C 34.308594 275.25 32.859375 272.691406 31.472656 270.101562 C 30.085938 267.507812 28.765625 264.882812 27.507812 262.222656 C 26.25 259.566406 25.058594 256.878906 23.933594 254.160156 C 22.808594 251.445312 21.75 248.703125 20.761719 245.933594 C 19.769531 243.167969 18.847656 240.375 17.996094 237.5625 C 17.140625 234.75 16.355469 231.914062 15.644531 229.0625 C 14.929688 226.210938 14.285156 223.34375 13.710938 220.460938 C 13.136719 217.574219 12.632812 214.679688 12.203125 211.769531 C 11.773438 208.863281 11.410156 205.945312 11.125 203.019531 C 10.835938 200.09375 10.621094 197.164062 10.476562 194.226562 C 10.332031 191.289062 10.257812 188.351562 10.257812 185.410156 C 10.257812 182.46875 10.332031 179.53125 10.476562 176.59375 C 10.621094 173.65625 10.835938 170.726562 11.125 167.800781 C 11.410156 164.875 11.773438 161.957031 12.203125 159.050781 C 12.632812 156.140625 13.136719 153.246094 13.710938 150.359375 C 14.285156 147.476562 14.929688 144.609375 15.644531 141.757812 C 16.355469 138.90625 17.140625 136.070312 17.996094 133.257812 C 18.847656 130.445312 19.769531 127.652344 20.761719 124.886719 C 21.75 122.117188 22.808594 119.375 23.933594 116.660156 C 25.058594 113.941406 26.25 111.253906 27.507812 108.597656 C 28.765625 105.9375 30.085938 103.3125 31.472656 100.71875 C 32.859375 98.128906 34.308594 95.570312 35.820312 93.046875 C 37.332031 90.527344 38.902344 88.042969 40.535156 85.597656 C 42.171875 83.152344 43.863281 80.75 45.613281 78.386719 C 47.367188 76.027344 49.171875 73.710938 51.039062 71.4375 C 52.902344 69.164062 54.824219 66.9375 56.796875 64.761719 C 58.773438 62.582031 60.800781 60.453125 62.878906 58.375 C 64.957031 56.292969 67.085938 54.269531 69.265625 52.292969 C 71.445312 50.320312 73.667969 48.398438 75.941406 46.535156 C 78.214844 44.667969 80.53125 42.859375 82.894531 41.109375 C 85.253906 39.355469 87.660156 37.664062 90.105469 36.03125 C 92.546875 34.398438 95.03125 32.824219 97.554688 31.3125 C 100.074219 29.800781 102.632812 28.351562 105.226562 26.96875 C 107.820312 25.582031 110.445312 24.257812 113.101562 23.003906 C 115.761719 21.746094 118.449219 20.554688 121.164062 19.429688 C 123.878906 18.304688 126.621094 17.246094 129.390625 16.253906 C 132.160156 15.265625 134.949219 14.34375 137.765625 13.488281 C 140.578125 12.636719 143.410156 11.851562 146.261719 11.136719 C 149.113281 10.421875 151.984375 9.777344 154.867188 9.207031 C 157.75 8.632812 160.644531 8.128906 163.554688 7.699219 C 166.464844 7.265625 169.378906 6.90625 172.304688 6.617188 C 175.230469 6.332031 178.164062 6.113281 181.101562 5.96875 C 184.035156 5.824219 186.976562 5.753906 189.914062 5.753906 C 192.855469 5.753906 195.792969 5.824219 198.730469 5.96875 C 201.667969 6.113281 204.597656 6.332031 207.523438 6.617188 C 210.453125 6.90625 213.367188 7.265625 216.277344 7.699219 C 219.183594 8.128906 222.082031 8.632812 224.964844 9.207031 C 227.847656 9.777344 230.714844 10.421875 233.570312 11.136719 C 236.421875 11.851562 239.253906 12.636719 242.066406 13.488281 C 244.882812 14.34375 247.671875 15.265625 250.441406 16.253906 C 253.207031 17.246094 255.949219 18.304688 258.667969 19.429688 C 261.382812 20.554688 264.070312 21.746094 266.730469 23.003906 C 269.386719 24.257812 272.011719 25.582031 274.605469 26.96875 C 277.199219 28.351562 279.753906 29.800781 282.277344 31.3125 C 284.800781 32.824219 287.28125 34.398438 289.726562 36.03125 C 292.171875 37.664062 294.574219 39.355469 296.9375 41.109375 C 299.296875 42.859375 301.617188 44.667969 303.890625 46.535156 C 306.160156 48.398438 308.386719 50.320312 310.566406 52.292969 C 312.746094 54.269531 314.875 56.292969 316.953125 58.375 C 319.03125 60.453125 321.058594 62.582031 323.03125 64.761719 C 325.007812 66.9375 326.925781 69.164062 328.792969 71.4375 C 330.65625 73.710938 332.464844 76.027344 334.21875 78.386719 C 335.96875 80.75 337.660156 83.152344 339.296875 85.597656 C 340.929688 88.042969 342.5 90.527344 344.011719 93.046875 C 345.523438 95.570312 346.972656 98.128906 348.359375 100.71875 C 349.746094 103.3125 351.066406 105.9375 352.324219 108.597656 C 353.582031 111.253906 354.773438 113.941406 355.898438 116.660156 C 357.023438 119.375 358.078125 122.117188 359.070312 124.886719 C 360.0625 127.652344 360.984375 130.445312 361.835938 133.257812 C 362.691406 136.070312 363.472656 138.90625 364.1875 141.757812 C 364.902344 144.609375 365.546875 147.476562 366.121094 150.359375 C 366.695312 153.246094 367.195312 156.140625 367.628906 159.050781 C 368.058594 161.957031 368.417969 164.875 368.707031 167.800781 C 368.996094 170.726562 369.210938 173.65625 369.355469 176.59375 C 369.5 179.53125 369.574219 182.46875 369.574219 185.410156 Z M 369.574219 185.410156 " fill-opacity="1" fill-rule="nonzero"/></g><path fill="#25f4ee" d="M 166.066406 159.726562 L 166.066406 149.980469 C 162.796875 149.53125 159.476562 149.261719 156.097656 149.261719 C 115.304688 149.261719 82.125 182.441406 82.125 223.234375 C 82.125 248.261719 94.632812 270.40625 113.710938 283.804688 C 101.394531 270.582031 94.089844 252.875 94.089844 233.425781 C 94.089844 193.226562 126.089844 160.652344 166.066406 159.726562 Z M 166.066406 159.726562 " fill-opacity="1" fill-rule="nonzero"/><path fill="#25f4ee" d="M 167.804688 267.421875 C 186.007812 267.421875 201.066406 252.730469 201.738281 234.703125 L 201.894531 73.855469 L 231.058594 73.855469 C 231.058594 73.855469 231.007812 73.632812 231.007812 73.632812 C 230.402344 70.328125 230.066406 66.914062 230.066406 63.4375 L 189.882812 63.4375 L 189.820312 224.507812 C 189.148438 242.550781 174.296875 257.019531 156.097656 257.019531 C 150.433594 257.019531 145.121094 255.601562 140.429688 253.144531 C 146.574219 261.648438 156.542969 267.4375 167.820312 267.4375 Z M 167.804688 267.421875 " fill-opacity="1" fill-rule="nonzero"/><path fill="#25f4ee" d="M 285.996094 128.761719 L 285.996094 119.320312 C 274.765625 119.320312 264.316406 115.984375 255.542969 110.257812 C 263.34375 119.222656 273.953125 126.179688 285.996094 128.746094 Z M 285.996094 128.761719 " fill-opacity="1" fill-rule="nonzero"/><path fill="#fe2c55" d="M 255.542969 110.273438 C 246.992188 100.445312 241.792969 87.636719 241.792969 73.613281 L 230.851562 73.613281 C 233.6875 88.929688 242.957031 102.074219 255.542969 110.273438 Z M 255.542969 110.273438 " fill-opacity="1" fill-rule="nonzero"/><path fill="#fe2c55" d="M 156.097656 189.128906 C 137.464844 189.128906 122.085938 204.585938 122.085938 223.21875 C 122.085938 236.1875 129.664062 247.464844 140.414062 253.128906 C 136.410156 247.578125 134.019531 240.78125 134.019531 233.425781 C 134.019531 214.792969 149.171875 199.640625 167.804688 199.640625 C 171.28125 199.640625 174.617188 200.214844 177.777344 201.203125 L 177.777344 160.171875 C 174.503906 159.726562 171.1875 159.457031 167.804688 159.457031 C 167.214844 159.457031 166.640625 159.488281 166.066406 159.503906 L 165.90625 159.503906 C 165.90625 159.503906 165.796875 190.5625 165.796875 190.5625 C 162.636719 189.574219 159.574219 189.144531 156.097656 189.144531 Z M 156.097656 189.128906 " fill-opacity="1" fill-rule="nonzero"/><path fill="#fe2c55" d="M 285.996094 128.285156 L 285.804688 128.253906 L 285.804688 159.28125 C 264.957031 159.28125 245.589844 152.421875 229.828125 141.109375 L 229.828125 223.21875 C 229.828125 264.007812 196.886719 296.980469 156.097656 296.980469 C 140.335938 296.980469 125.722656 292.210938 113.695312 283.773438 C 127.207031 298.273438 146.460938 307.382812 167.804688 307.382812 C 208.597656 307.382812 241.777344 274.203125 241.777344 233.410156 L 241.777344 151.734375 C 257.539062 163.042969 276.855469 169.714844 297.691406 169.714844 L 297.691406 129.527344 C 293.671875 129.527344 289.761719 129.097656 285.980469 128.285156 Z M 285.996094 128.285156 " fill-opacity="1" fill-rule="nonzero"/><path fill="#ffffff" d="M 230.066406 223.21875 L 230.066406 141.539062 C 245.828125 152.851562 265.148438 159.519531 285.980469 159.519531 L 285.980469 128.285156 C 273.9375 125.699219 263.34375 119.238281 255.527344 110.273438 C 242.941406 102.058594 233.847656 88.929688 231.007812 73.613281 L 201.578125 73.613281 L 201.511719 234.6875 C 200.84375 252.730469 185.992188 267.199219 167.789062 267.199219 C 156.511719 267.199219 146.539062 261.632812 140.398438 253.113281 C 129.648438 247.449219 122.292969 236.1875 122.292969 223.203125 C 122.292969 204.570312 137.449219 189.414062 156.082031 189.414062 C 159.558594 189.414062 162.890625 189.988281 166.050781 190.976562 L 166.050781 159.472656 C 126.058594 160.414062 93.816406 193.195312 93.816406 233.410156 C 93.816406 252.855469 101.378906 270.566406 113.679688 283.789062 C 125.691406 292.226562 140.304688 297.1875 156.082031 297.1875 C 196.871094 297.1875 230.050781 264.007812 230.050781 223.21875 Z M 230.066406 223.21875 " fill-opacity="1" fill-rule="nonzero"/></svg>