<svg xmlns="http://www.w3.org/2000/svg" xmlns:xlink="http://www.w3.org/1999/xlink" width="500" zoomAndPan="magnify" viewBox="0 0 375 374.999991" height="500" preserveAspectRatio="xMidYMid meet" version="1.0"><defs><clipPath id="767fbf3588"><path d="M 10.257812 5.753906 L 369.507812 5.753906 L 369.507812 365 L 10.257812 365 Z M 10.257812 5.753906 " clip-rule="nonzero"/></clipPath></defs><g clip-path="url(#767fbf3588)"><path fill="#5865f2" d="M 369.476562 185.371094 C 369.476562 284.507812 288.992188 364.996094 189.851562 364.996094 C 90.714844 364.996094 10.226562 284.507812 10.226562 185.371094 C 10.226562 86.230469 90.714844 5.746094 189.851562 5.746094 C 288.992188 5.746094 369.476562 86.230469 369.476562 185.371094 Z M 369.476562 185.371094 " fill-opacity="1" fill-rule="evenodd"/></g><path fill="#ffffff" d="M 274.722656 107.496094 C 274.859375 107.542969 274.976562 107.644531 275.042969 107.78125 C 302.699219 148.472656 316.359375 194.375 311.25 247.210938 C 311.230469 247.433594 311.113281 247.632812 310.929688 247.769531 C 289.988281 263.160156 269.695312 272.503906 249.683594 278.695312 C 249.363281 278.789062 249.019531 278.679688 248.824219 278.398438 C 244.203125 271.96875 240.003906 265.179688 236.320312 258.058594 C 236.109375 257.636719 236.304688 257.136719 236.734375 256.96875 C 243.410156 254.453125 249.753906 251.433594 255.851562 247.871094 C 256.332031 247.59375 256.367188 246.898438 255.917969 246.570312 C 254.628906 245.605469 253.34375 244.59375 252.117188 243.585938 C 251.882812 243.402344 251.574219 243.359375 251.3125 243.484375 C 211.707031 261.792969 168.320312 261.792969 128.238281 243.484375 C 127.976562 243.367188 127.664062 243.410156 127.445312 243.597656 C 126.21875 244.601562 124.933594 245.605469 123.652344 246.570312 C 123.210938 246.898438 123.246094 247.59375 123.726562 247.871094 C 129.828125 251.367188 136.167969 254.453125 142.835938 256.976562 C 143.265625 257.144531 143.46875 257.636719 143.257812 258.058594 C 139.65625 265.195312 135.460938 271.980469 130.746094 278.40625 C 130.546875 278.679688 130.207031 278.789062 129.886719 278.695312 C 109.976562 272.503906 89.683594 263.160156 68.734375 247.769531 C 68.558594 247.632812 68.441406 247.421875 68.414062 247.203125 C 64.148438 201.496094 72.847656 155.210938 104.59375 107.773438 C 104.671875 107.644531 104.789062 107.542969 104.921875 107.496094 C 120.542969 100.3125 137.285156 95.035156 154.769531 92.027344 C 155.089844 91.976562 155.414062 92.117188 155.574219 92.40625 C 157.734375 96.234375 160.210938 101.140625 161.875 105.15625 C 180.316406 102.339844 199.042969 102.339844 217.863281 105.15625 C 219.535156 101.226562 221.917969 96.234375 224.074219 92.40625 C 224.234375 92.109375 224.554688 91.96875 224.875 92.027344 C 242.375 95.050781 259.113281 100.320312 274.722656 107.496094 Z M 149.246094 219.371094 C 161.503906 219.371094 171.25 208.285156 171.25 194.679688 C 171.445312 181.171875 161.597656 169.996094 149.246094 169.996094 C 136.980469 169.996094 127.230469 181.070312 127.230469 194.679688 C 127.230469 208.285156 137.175781 219.371094 149.246094 219.371094 Z M 230.621094 219.371094 C 242.976562 219.371094 252.625 208.285156 252.625 194.679688 C 252.820312 181.171875 242.976562 169.996094 230.621094 169.996094 C 218.363281 169.996094 208.605469 181.070312 208.605469 194.679688 C 208.605469 208.285156 218.546875 219.371094 230.621094 219.371094 Z M 230.621094 219.371094 " fill-opacity="1" fill-rule="evenodd"/></svg>