<svg xmlns="http://www.w3.org/2000/svg" xmlns:xlink="http://www.w3.org/1999/xlink" width="500" zoomAndPan="magnify" viewBox="0 0 375 374.999991" height="500" preserveAspectRatio="xMidYMid meet" version="1.0"><defs><clipPath id="df611295c5"><path d="M 11.992188 10.605469 L 364.492188 10.605469 L 364.492188 362 L 11.992188 362 Z M 11.992188 10.605469 " clip-rule="nonzero"/></clipPath><clipPath id="fbf540dd22"><path d="M 109 75 L 271 75 L 271 363.105469 L 109 363.105469 Z M 109 75 " clip-rule="nonzero"/></clipPath></defs><g clip-path="url(#df611295c5)"><path fill="#0866ff" d="M 364.539062 186.886719 C 364.539062 89.523438 285.621094 10.605469 188.273438 10.605469 C 90.925781 10.605469 11.992188 89.523438 11.992188 186.886719 C 11.992188 269.554688 68.902344 338.929688 145.683594 357.980469 L 145.683594 240.757812 L 109.324219 240.757812 L 109.324219 186.886719 L 145.683594 186.886719 L 145.683594 163.675781 C 145.683594 103.683594 172.832031 75.867188 231.734375 75.867188 C 242.90625 75.867188 262.175781 78.050781 270.054688 80.25 L 270.054688 129.074219 C 265.894531 128.632812 258.664062 128.410156 249.691406 128.410156 C 220.785156 128.410156 209.617188 139.359375 209.617188 167.820312 L 209.617188 186.871094 L 267.191406 186.871094 L 257.300781 240.742188 L 209.617188 240.742188 L 209.617188 361.855469 C 296.902344 351.320312 364.539062 276.988281 364.539062 186.871094 Z M 364.539062 186.886719 " fill-opacity="1" fill-rule="nonzero"/></g><g clip-path="url(#fbf540dd22)"><path fill="#ffffff" d="M 257.316406 240.742188 L 267.207031 186.871094 L 209.632812 186.871094 L 209.632812 167.820312 C 209.632812 139.359375 220.800781 128.410156 249.707031 128.410156 C 258.679688 128.410156 265.910156 128.632812 270.070312 129.074219 L 270.070312 80.25 C 262.191406 78.066406 242.921875 75.867188 231.75 75.867188 C 172.847656 75.867188 145.699219 103.683594 145.699219 163.675781 L 145.699219 186.886719 L 109.339844 186.886719 L 109.339844 240.757812 L 145.699219 240.757812 L 145.699219 357.980469 C 159.335938 361.363281 173.589844 363.167969 188.289062 363.167969 C 195.519531 363.167969 202.640625 362.726562 209.648438 361.871094 L 209.648438 240.757812 L 257.332031 240.757812 Z M 257.316406 240.742188 " fill-opacity="1" fill-rule="nonzero"/></g></svg>