<svg xmlns="http://www.w3.org/2000/svg" xmlns:xlink="http://www.w3.org/1999/xlink" width="3964" zoomAndPan="magnify" viewBox="0 0 2973 1974.74992" height="2633" preserveAspectRatio="xMidYMid meet" version="1.0"><defs><clipPath id="719fa39fe8"><path d="M 1126 1422 L 1505 1422 L 1505 1812.921875 L 1126 1812.921875 Z M 1126 1422 " clip-rule="nonzero"/></clipPath><clipPath id="4f18a52f40"><path d="M 538.859375 124.882812 L 2064.476562 124.882812 L 2064.476562 1770 L 538.859375 1770 Z M 538.859375 124.882812 " clip-rule="nonzero"/></clipPath></defs><path fill="#f6b737" d="M 1750.628906 884.957031 C 1726.332031 991.597656 1671.460938 1081.28125 1599.710938 1162.425781 C 1563.152344 1203.773438 1525.15625 1244.710938 1498.882812 1293.683594 C 1485.167969 1319.246094 1475.164062 1346.648438 1468.914062 1374.957031 C 1462.664062 1403.277344 1464.195312 1431.597656 1459.976562 1459.960938 C 1452.789062 1508.347656 1406.871094 1516.234375 1365.433594 1515.984375 C 1306.761719 1515.613281 1248.003906 1509.695312 1190.402344 1498.488281 C 1185.429688 1500.425781 1178.640625 1498.871094 1177.730469 1492.804688 C 1173.628906 1465.367188 1169.636719 1437.863281 1164.136719 1410.648438 C 1152.800781 1354.519531 1134.238281 1300.3125 1098.613281 1254.746094 C 1066.722656 1213.964844 1026.890625 1180.355469 992.164062 1142.144531 C 925.257812 1068.558594 886.695312 973.191406 878.519531 874.394531 C 871.082031 784.65625 889.160156 690.871094 936.515625 613.632812 C 986.972656 531.355469 1068.527344 478.261719 1159.800781 450.703125 C 1260.488281 420.324219 1375.847656 411.425781 1479.910156 425.769531 C 1579.910156 439.5625 1680.03125 487.527344 1727.820312 580.828125 C 1774.71875 672.398438 1772.976562 786.820312 1750.628906 884.957031 " fill-opacity="1" fill-rule="nonzero"/><path fill="#f59a3d" d="M 1459.433594 1212.222656 C 1422.480469 1199.117188 1416.191406 1146.601562 1381.476562 1185.167969 C 1377.757812 1189.308594 1346.105469 1354.425781 1348.070312 1361.914062 C 1376.664062 1470.8125 1515.28125 1232.027344 1459.433594 1212.222656 Z M 1414.898438 533.652344 C 1436.257812 521.429688 1507.109375 530.921875 1524.246094 506 C 1551.523438 466.339844 1490.457031 450.992188 1460.121094 447.445312 C 1370.707031 437.003906 1382.597656 552.109375 1414.898438 533.652344 Z M 1703.917969 703.515625 C 1704.128906 838.964844 1659.488281 1004.558594 1567.621094 1107.917969 C 1541.097656 1137.753906 1487.238281 1188.886719 1453.183594 1141.894531 C 1433.621094 1114.917969 1459.871094 985.164062 1458.800781 954.058594 C 1456.007812 872.074219 1437.695312 794.058594 1428.292969 713.0625 C 1420.476562 645.578125 1430.269531 623.71875 1493.105469 596.636719 C 1610.828125 545.875 1703.695312 555.695312 1703.917969 703.515625 " fill-opacity="1" fill-rule="nonzero"/><g clip-path="url(#719fa39fe8)"><path fill="#c49261" d="M 1504.378906 1608.28125 C 1503.230469 1633.515625 1488.53125 1658.371094 1464.101562 1663.101562 C 1472.777344 1687.613281 1459.027344 1713.867188 1437.867188 1728.871094 C 1438.457031 1752.011719 1432.484375 1773.132812 1412.261719 1788.929688 C 1389.019531 1807.070312 1357.535156 1812.359375 1328.78125 1812.582031 C 1287.921875 1812.898438 1200.089844 1793.453125 1203.902344 1739.867188 C 1189.914062 1736.375 1176.136719 1731.230469 1165.8125 1721.460938 C 1155.148438 1711.359375 1149.992188 1697.003906 1156.015625 1682.972656 C 1160.011719 1673.691406 1167.132812 1667.453125 1175.382812 1662.761719 C 1151.179688 1651.699219 1131.441406 1632.410156 1127.722656 1604.257812 C 1124.519531 1580.078125 1137.347656 1556.605469 1158.839844 1547.101562 C 1140.40625 1525.226562 1123.730469 1500.242188 1127.117188 1470.363281 C 1129.332031 1450.824219 1142.054688 1434.023438 1159.550781 1427.617188 C 1160.550781 1425.875 1162.28125 1424.675781 1164.640625 1424.964844 C 1165.851562 1425.113281 1167.078125 1425.257812 1168.277344 1425.402344 C 1171.667969 1424.886719 1175.171875 1424.703125 1178.773438 1424.980469 C 1180.960938 1425.152344 1182.6875 1426.007812 1183.980469 1427.234375 C 1221.265625 1431.386719 1258.65625 1434.105469 1296.214844 1433.773438 C 1339.050781 1433.390625 1380.566406 1427.339844 1423.007812 1422.699219 C 1451.15625 1419.625 1482.941406 1426.917969 1491.234375 1457.769531 C 1498.5 1484.851562 1490.851562 1512.976562 1475.492188 1535.550781 C 1495.609375 1553.824219 1505.617188 1580.867188 1504.378906 1608.28125 " fill-opacity="1" fill-rule="nonzero"/></g><g clip-path="url(#4f18a52f40)"><path fill="#2e2e30" d="M 1424.640625 1734.9375 C 1395.492188 1754.964844 1363.269531 1756.691406 1328.898438 1756.625 C 1290.769531 1756.558594 1255.792969 1751.3125 1219.050781 1741.609375 C 1213.644531 1740.171875 1209.914062 1748.160156 1215.148438 1750.851562 C 1251.125 1769.414062 1295.847656 1769.585938 1335.371094 1769.929688 C 1368.292969 1770.21875 1407.382812 1769.679688 1431.933594 1744.375 C 1436.519531 1739.65625 1430.441406 1730.941406 1424.640625 1734.9375 Z M 1447.082031 1657.210938 C 1427.09375 1659.925781 1407.527344 1667.535156 1387.566406 1671.210938 C 1365.933594 1675.195312 1344.007812 1677.476562 1322.015625 1678.132812 C 1279.367188 1679.398438 1237.308594 1673.546875 1195.898438 1663.628906 C 1188.621094 1661.890625 1185.640625 1672.664062 1192.8125 1674.839844 C 1235.714844 1687.800781 1280.644531 1693.113281 1325.417969 1692.214844 C 1365.484375 1691.425781 1416.296875 1688.5625 1452.394531 1669.816406 C 1459.960938 1665.886719 1454.175781 1656.246094 1447.082031 1657.210938 Z M 1322.4375 1566.707031 C 1363.769531 1564.675781 1414.304688 1562.789062 1452.339844 1545.347656 C 1457.523438 1542.960938 1454.992188 1534.140625 1449.414062 1534.5625 C 1429.375 1536.039062 1409.585938 1542.523438 1389.71875 1545.820312 C 1366.300781 1549.699219 1342.664062 1552.363281 1318.957031 1553.429688 C 1274.394531 1555.433594 1231.496094 1549.34375 1187.261719 1546.492188 C 1181 1546.085938 1179.90625 1555.695312 1185.800781 1557.28125 C 1229.121094 1568.933594 1277.941406 1568.910156 1322.4375 1566.707031 Z M 1534.359375 868.421875 C 1533.621094 864.769531 1528.730469 862.199219 1521.253906 861.550781 C 1520.199219 861.460938 1519.132812 861.40625 1518.0625 861.40625 C 1501.203125 861.40625 1484.140625 872.507812 1472.566406 884.019531 C 1480.714844 886.855469 1489.164062 888.332031 1497.273438 888.332031 C 1506.699219 888.332031 1515.214844 886.367188 1522.597656 882.464844 C 1531.710938 877.652344 1535.070312 871.941406 1534.359375 868.421875 Z M 1433.539062 887.777344 L 1432.949219 887.566406 L 1432.511719 887.195312 C 1427.582031 883.003906 1422.980469 878.335938 1418.839844 873.339844 C 1411.640625 864.730469 1405.457031 854.761719 1400.449219 843.671875 C 1387.859375 852.308594 1373.515625 856.859375 1358.707031 856.859375 C 1335.476562 856.859375 1313.34375 845.492188 1298.628906 826.230469 C 1281.421875 847.917969 1260.527344 859.796875 1239.40625 859.796875 C 1231.691406 859.796875 1223.96875 858.214844 1216.375 855.078125 C 1213.617188 869.949219 1210.175781 881.988281 1205.65625 892.683594 C 1204.730469 894.84375 1203.214844 897.46875 1201.605469 900.25 C 1199.433594 903.980469 1195.804688 910.21875 1196.058594 912.367188 C 1196.414062 915.453125 1202.386719 922.402344 1206.734375 927.476562 C 1210.546875 931.90625 1214.132812 936.101562 1215.953125 939.464844 C 1221.1875 949.152344 1225.761719 960.269531 1229.925781 973.441406 C 1245.535156 1022.847656 1248.148438 1076.429688 1249.375 1122.777344 C 1250.703125 1173.339844 1249.414062 1224.804688 1248.148438 1274.589844 C 1247.855469 1286.207031 1247.566406 1297.808594 1247.304688 1309.410156 C 1246.65625 1338.394531 1245.785156 1368.546875 1244.746094 1399.019531 C 1244.691406 1400.757812 1244.757812 1403.910156 1244.851562 1407.878906 C 1244.941406 1412.375 1245.023438 1416.859375 1245.035156 1421.25 C 1268.832031 1422.460938 1292.628906 1423.464844 1316.625 1422.894531 C 1346.039062 1422.210938 1375.054688 1419.496094 1404.113281 1416.355469 C 1401.675781 1403.132812 1401.226562 1385.621094 1401.160156 1367.902344 C 1401.148438 1362.878906 1401.132812 1358.539062 1400.976562 1355.957031 C 1397.5625 1299.113281 1397.546875 1237.683594 1400.910156 1162.609375 C 1401.542969 1148.632812 1402.070312 1134.589844 1402.609375 1120.519531 C 1404.351562 1074.691406 1406.15625 1027.300781 1411.367188 981.378906 C 1413.289062 964.488281 1415.625 950.921875 1418.734375 938.660156 C 1419.722656 934.769531 1421.886719 929.085938 1424.378906 922.507812 C 1427.992188 913.054688 1436.414062 890.902344 1433.539062 887.777344 Z M 1199.65625 813.503906 C 1199.867188 811.988281 1200.105469 810.40625 1200.339844 808.773438 C 1203.359375 788.058594 1207.9375 756.742188 1199.378906 741.960938 C 1196.648438 737.230469 1192.746094 734.40625 1188.964844 734.40625 C 1186.167969 734.40625 1183.414062 735.898438 1180.75 738.835938 C 1174.960938 745.207031 1178.5625 759.445312 1180.710938 767.949219 L 1181.160156 769.769531 C 1185.695312 788.03125 1191.773438 802.429688 1199.65625 813.503906 Z M 1301.6875 779.949219 C 1308.792969 768.082031 1316.585938 754.078125 1317.890625 741.183594 C 1318.457031 735.554688 1316.453125 726.339844 1312.921875 722.433594 C 1312.0625 721.484375 1311.246094 721.011719 1310.46875 721.011719 C 1309.730469 721.011719 1307.648438 721.484375 1304.429688 725.890625 C 1294.238281 739.789062 1296.769531 761.765625 1301.6875 779.949219 Z M 1411.378906 800.980469 C 1428.570312 778.960938 1436.203125 761.34375 1434.082031 748.582031 C 1432.800781 740.921875 1425.960938 734.210938 1419.421875 734.210938 C 1414.121094 734.210938 1411.378906 738.785156 1409.996094 742.636719 C 1405.367188 755.492188 1405.839844 775.109375 1411.378906 800.980469 Z M 1158.164062 914.808594 C 1153.800781 913.304688 1149.226562 912.539062 1144.664062 912.539062 C 1136.082031 912.539062 1128.488281 915.242188 1122.871094 920.226562 C 1126.773438 922.085938 1130.886719 923.019531 1135.148438 923.019531 C 1144.007812 923.019531 1152.046875 919.078125 1158.164062 914.808594 Z M 1556.101562 864.914062 C 1558.105469 881.539062 1545.445312 902.820312 1518.0625 909.492188 C 1512.066406 910.957031 1505.578125 911.695312 1498.761719 911.695312 C 1494.425781 911.695312 1489.902344 911.390625 1485.339844 910.796875 C 1482.519531 910.429688 1477.878906 908.6875 1472.488281 906.671875 C 1467.238281 904.695312 1460.027344 901.992188 1457.417969 901.992188 C 1451.511719 903.664062 1443.296875 917.339844 1437.246094 972.914062 L 1436.863281 976.300781 C 1421.914062 1105.871094 1417.96875 1237.050781 1425.15625 1366.214844 C 1425.222656 1367.558594 1425.589844 1370.523438 1426.039062 1374.28125 C 1427.675781 1387.835938 1429.164062 1401.984375 1429.175781 1413.574219 C 1434.265625 1413.007812 1439.34375 1412.441406 1444.445312 1411.875 C 1452.460938 1410.992188 1454.121094 1424.414062 1446.328125 1425.863281 C 1403.863281 1433.761719 1359.738281 1436.253906 1316.625 1437.070312 C 1273.777344 1437.886719 1229.175781 1437.625 1186.894531 1430.109375 C 1180.261719 1428.921875 1181.964844 1418.347656 1188.449219 1418.558594 C 1198.878906 1418.886719 1209.292969 1419.390625 1219.683594 1419.929688 C 1219.734375 1398.597656 1221.105469 1369.0625 1223.71875 1329.109375 C 1224.429688 1318.351562 1224.984375 1309.859375 1225.046875 1306.195312 C 1225.933594 1257.039062 1226.722656 1199.050781 1225.917969 1141.722656 C 1225.234375 1093.015625 1222.636719 1041.082031 1208.316406 991.398438 C 1207.855469 989.804688 1207.316406 987.785156 1206.695312 985.480469 C 1202.792969 970.988281 1193.65625 937.078125 1181.84375 932.105469 C 1181.832031 932.09375 1181.59375 932 1181.015625 932 C 1177.507812 932 1170.296875 934.992188 1163.320312 937.894531 C 1153.234375 942.085938 1141.804688 946.832031 1132.8125 946.832031 C 1132.152344 946.832031 1131.519531 946.808594 1130.902344 946.753906 C 1117.914062 945.710938 1101 940.359375 1096.054688 928.691406 C 1094.011719 923.890625 1093.3125 916.058594 1101.566406 906.011719 C 1111.125 894.410156 1125.734375 888.015625 1142.714844 888.015625 C 1144.519531 888.015625 1146.328125 888.082031 1148.121094 888.238281 C 1152.0625 888.554688 1156.769531 890.441406 1161.316406 892.261719 C 1165.613281 893.988281 1170.058594 895.78125 1172.800781 895.78125 C 1172.972656 895.78125 1173.144531 895.765625 1173.300781 895.753906 C 1178.839844 895.132812 1182.027344 887.078125 1185.113281 879.285156 L 1186.933594 874.75 C 1189.886719 867.472656 1193.933594 857.503906 1193.933594 850.398438 C 1193.949219 841.074219 1192.035156 838.808594 1187.421875 833.347656 C 1185.679688 831.292969 1183.703125 828.945312 1181.421875 825.753906 C 1168.355469 807.53125 1148.199219 761.503906 1158.390625 732.628906 C 1162.34375 721.394531 1170.386719 714.023438 1182.304688 710.726562 C 1185.917969 709.726562 1189.386719 709.210938 1192.601562 709.210938 C 1200.261719 709.210938 1206.75 712.007812 1211.890625 717.515625 C 1226.816406 733.523438 1226.128906 768.414062 1225.152344 782.664062 C 1224.917969 786.015625 1223.835938 791.777344 1222.582031 798.460938 C 1220.738281 808.246094 1216.914062 828.628906 1218.984375 831.9375 C 1222.609375 837.066406 1229.609375 838.148438 1234.859375 838.148438 C 1245.179688 838.148438 1257.535156 833.96875 1263.519531 829.933594 C 1270.785156 825.027344 1279.417969 817.15625 1282.308594 810.65625 C 1285.589844 803.273438 1284.113281 798.410156 1281.871094 791.039062 C 1280.949219 787.980469 1279.894531 784.511719 1279.101562 780.476562 C 1273.960938 754.054688 1275.6875 733.167969 1284.230469 718.425781 C 1290.402344 707.785156 1302.492188 697.054688 1315.582031 697.054688 C 1320.671875 697.054688 1325.484375 698.648438 1329.863281 701.773438 C 1348.992188 715.40625 1342.082031 744.664062 1338.21875 756.597656 C 1336.46875 762.042969 1331.3125 770.035156 1325.855469 778.5 C 1319.65625 788.097656 1311.167969 801.242188 1311.601562 806.160156 C 1312.511719 816.351562 1334.292969 829.75 1345.273438 832.835938 C 1348.78125 833.824219 1353.34375 834.363281 1358.113281 834.363281 C 1373.011719 834.363281 1389.941406 829.355469 1391.890625 818.371094 C 1393.15625 811.144531 1390.507812 801.058594 1387.9375 791.316406 C 1385.722656 782.914062 1383.429688 774.226562 1383.414062 766.671875 C 1383.414062 754.5 1387.421875 740.5 1394.148438 729.226562 C 1401.898438 716.238281 1411.867188 709.09375 1422.214844 709.09375 C 1431.601562 709.09375 1440.542969 714.828125 1448.820312 726.140625 C 1460.515625 742.132812 1459.789062 764.179688 1446.710938 789.878906 L 1430.269531 814.863281 C 1428.53125 817.050781 1426.988281 818.820312 1425.671875 820.320312 C 1420.027344 826.824219 1419.683594 827.203125 1423.773438 838.304688 C 1427.527344 848.472656 1435.992188 858.308594 1440.699219 863.277344 C 1443.375 866.085938 1447.859375 870.792969 1449.363281 870.792969 C 1450.085938 870.792969 1451.722656 869.6875 1453.605469 868.394531 C 1455.109375 867.367188 1456.890625 866.152344 1459.144531 864.808594 C 1463.585938 862.171875 1467.6875 859.363281 1471.65625 856.648438 C 1483.152344 848.789062 1494.015625 841.367188 1510.613281 839.214844 C 1513.804688 838.808594 1516.929688 838.597656 1519.882812 838.597656 C 1544.261719 838.597656 1554.570312 852.191406 1556.101562 864.914062 Z M 1870.589844 1299.21875 C 1846.464844 1279.246094 1820.320312 1261.839844 1796.273438 1241.691406 C 1773.242188 1222.417969 1752.355469 1200.09375 1728.164062 1182.292969 C 1720.492188 1176.636719 1709.679688 1187.765625 1715.035156 1195.425781 C 1732.765625 1220.792969 1757.867188 1241.375 1781.691406 1260.863281 C 1805.738281 1280.523438 1830.882812 1300.589844 1858.632812 1314.726562 C 1868.035156 1319.5 1879.703125 1306.761719 1870.589844 1299.21875 Z M 2059.269531 1071.261719 C 2028.65625 1048.925781 1993.980469 1031.734375 1960.480469 1014.195312 C 1929.761719 998.109375 1894.746094 974.429688 1860.148438 968.933594 C 1850.75 967.429688 1841.007812 978.925781 1849.828125 986.664062 C 1876.339844 1009.992188 1914.902344 1022.636719 1946.226562 1038.574219 C 1980.085938 1055.808594 2013.109375 1075.507812 2048.0625 1090.417969 C 2061.140625 1095.996094 2070.960938 1079.804688 2059.269531 1071.261719 Z M 1880.214844 620.078125 C 1909.722656 615.332031 1938.675781 605.046875 1967.335938 596.714844 C 1996 588.367188 2025.898438 581.367188 2053.585938 570.1875 C 2065.898438 565.230469 2061.417969 547.785156 2048.074219 550.171875 C 2017.515625 555.644531 1987.324219 566.058594 1957.5 574.605469 C 1928.996094 582.777344 1899.609375 589.648438 1872.265625 601.238281 C 1860.675781 606.140625 1869.695312 621.78125 1880.214844 620.078125 Z M 1780.4375 239.4375 C 1787.875 229.113281 1770.972656 219.660156 1763.511719 229.546875 C 1742.523438 257.355469 1721.019531 284.808594 1699.015625 311.824219 C 1679.039062 336.335938 1656.496094 359.726562 1638.828125 385.949219 C 1632.421875 395.457031 1646.253906 404.9375 1654.109375 397.75 C 1679.199219 374.78125 1700.042969 345.417969 1720.964844 318.71875 C 1741.347656 292.707031 1761.125 266.242188 1780.4375 239.4375 Z M 1316.636719 336.28125 C 1320.832031 303.621094 1315.347656 268.195312 1314.648438 235.257812 C 1313.921875 201.554688 1314.238281 167.867188 1313.960938 134.179688 C 1313.855469 121.65625 1295.597656 121.917969 1294.699219 134.179688 C 1292.15625 168.988281 1291.652344 203.96875 1291.8125 238.871094 C 1291.957031 271.160156 1289.464844 307.394531 1297.257812 338.90625 C 1300.144531 350.601562 1315.320312 346.539062 1316.636719 336.28125 Z M 862.472656 379.78125 C 842.132812 353.039062 822.816406 323.847656 799.71875 299.402344 C 791.792969 291.015625 777.910156 301.804688 783.804688 311.691406 C 801.734375 341.820312 825.53125 369.507812 846.601562 397.5 C 866.628906 424.121094 885.535156 454.488281 909.542969 477.707031 C 917.703125 485.589844 930.410156 475.621094 925.097656 465.695312 C 908.699219 435.078125 883.464844 407.375 862.472656 379.78125 Z M 740.734375 742.953125 C 763.199219 745.785156 786.835938 750.441406 809.488281 748.410156 C 821.710938 747.300781 824.9375 730.492188 812.453125 726.550781 C 793.019531 720.429688 771.730469 719.429688 751.582031 716.9375 C 727.484375 713.957031 703.394531 710.78125 679.347656 707.40625 C 636.210938 701.351562 593.203125 693.242188 549.90625 688.46875 C 537.011719 687.046875 534.640625 707.761719 546.875 710.859375 C 590.238281 721.855469 635.15625 728.011719 679.359375 734.550781 C 699.785156 737.585938 720.246094 740.378906 740.734375 742.953125 Z M 843.554688 1110.09375 C 815.550781 1129.277344 784.332031 1143.886719 755.105469 1161.144531 C 728.011719 1177.136719 700.613281 1200.59375 671.148438 1211.289062 C 661.285156 1214.875 655.722656 1201.664062 661.640625 1194.964844 C 672.636719 1182.542969 688.40625 1174.132812 702.273438 1165.230469 C 716.621094 1156.027344 731.109375 1147.078125 745.769531 1138.414062 C 774.667969 1121.351562 804.199219 1103.300781 836.027344 1092.238281 C 847.128906 1088.363281 852.113281 1104.210938 843.554688 1110.09375 " fill-opacity="1" fill-rule="nonzero"/></g><path fill="#ffffff" d="M 1009.160156 993.917969 C 1004.058594 979.402344 1002.144531 964.476562 993.894531 951.34375 C 991.875 948.113281 986.984375 948.730469 985.878906 952.382812 C 976.675781 982.550781 989.976562 1019.074219 1005.097656 1045.378906 C 1017.519531 1066.988281 1037.203125 1102.207031 1064.230469 1105.320312 C 1067.550781 1105.6875 1070.570312 1102.128906 1070.503906 1099.042969 C 1069.898438 1074.714844 1042.671875 1054.34375 1030.226562 1035.121094 C 1021.84375 1022.199219 1014.289062 1008.460938 1009.160156 993.917969 Z M 1097.042969 611.640625 C 1060.578125 633.988281 1034.65625 670.078125 1018.824219 709.328125 C 999.890625 756.296875 1001.40625 805.542969 989.9375 853.90625 C 987.261719 865.21875 968.050781 866.179688 966.0625 853.90625 C 957.585938 801.230469 970.292969 740.222656 991.414062 691.78125 C 1010.492188 648.019531 1041.738281 611.851562 1083.953125 589.253906 C 1098.679688 581.367188 1111.296875 602.914062 1097.042969 611.640625 " fill-opacity="1" fill-rule="nonzero"/></svg>