<svg xmlns="http://www.w3.org/2000/svg" xmlns:xlink="http://www.w3.org/1999/xlink" width="500" zoomAndPan="magnify" viewBox="0 0 375 374.999991" height="500" preserveAspectRatio="xMidYMid meet" version="1.0"><defs><clipPath id="cd5e9fab3f"><path d="M 19.910156 23 L 313 23 L 313 316 L 19.910156 316 Z M 19.910156 23 " clip-rule="nonzero"/></clipPath><clipPath id="c542da4a97"><path d="M 326 278 L 366.410156 278 L 366.410156 318.320312 L 326 318.320312 Z M 326 278 " clip-rule="nonzero"/></clipPath></defs><path fill="#0a66c2" d="M 349.300781 299.339844 C 352.296875 299.367188 354.753906 296.960938 354.785156 293.964844 C 354.785156 293.839844 354.785156 293.714844 354.785156 293.59375 C 354.785156 289.519531 352.324219 287.585938 347.296875 287.585938 L 339.164062 287.585938 L 339.164062 308.882812 L 342.230469 308.882812 L 342.230469 299.601562 L 345.984375 299.601562 L 346.070312 299.710938 L 351.910156 308.882812 L 355.183594 308.882812 L 348.898438 299.394531 L 349.316406 299.339844 Z M 345.765625 297.195312 L 342.214844 297.195312 L 342.214844 290 L 346.71875 290 C 349.039062 290 351.691406 290.386719 351.691406 293.425781 C 351.691406 296.921875 349.011719 297.210938 345.75 297.210938 " fill-opacity="1" fill-rule="nonzero"/><g clip-path="url(#cd5e9fab3f)"><path fill="#0a66c2" d="M 269.464844 272.640625 L 226.070312 272.640625 L 226.070312 204.671875 C 226.070312 188.472656 225.78125 167.601562 203.503906 167.601562 C 181.230469 167.601562 177.445312 185.265625 177.445312 203.5 L 177.445312 272.640625 L 134.054688 272.640625 L 134.054688 132.863281 L 175.71875 132.863281 L 175.71875 151.964844 L 176.300781 151.964844 C 184.792969 137.4375 200.589844 128.761719 217.398438 129.382812 C 261.382812 129.382812 269.492188 158.320312 269.492188 195.957031 L 269.492188 272.640625 Z M 85.070312 113.761719 C 71.160156 113.761719 59.878906 102.492188 59.878906 88.585938 C 59.878906 74.675781 71.148438 63.390625 85.054688 63.390625 C 98.960938 63.390625 110.246094 74.660156 110.246094 88.570312 C 110.246094 102.480469 98.976562 113.761719 85.070312 113.761719 M 106.777344 272.640625 L 63.332031 272.640625 L 63.332031 132.863281 L 106.777344 132.863281 Z M 291.105469 23.074219 L 41.523438 23.074219 C 29.730469 22.949219 20.050781 32.398438 19.910156 44.191406 L 19.910156 294.835938 C 20.050781 306.644531 29.71875 316.089844 41.523438 315.96875 L 291.105469 315.96875 C 302.925781 316.121094 312.632812 306.65625 312.800781 294.835938 L 312.800781 44.179688 C 312.632812 32.355469 302.925781 22.910156 291.105469 23.0625 " fill-opacity="1" fill-rule="nonzero"/></g><g clip-path="url(#c542da4a97)"><path fill="#0a66c2" d="M 346.125 278.09375 C 335.089844 278.207031 326.238281 287.226562 326.347656 298.261719 C 326.457031 309.296875 335.476562 318.148438 346.511719 318.039062 C 357.546875 317.929688 366.398438 308.910156 366.289062 297.875 C 366.175781 286.992188 357.394531 278.191406 346.511719 278.09375 L 346.125 278.09375 M 346.125 315.761719 C 336.457031 315.925781 328.488281 308.207031 328.324219 298.535156 C 328.15625 288.867188 335.878906 280.898438 345.542969 280.734375 C 355.210938 280.566406 363.179688 288.289062 363.347656 297.957031 L 363.347656 298.246094 C 363.554688 307.707031 356.039062 315.539062 346.582031 315.746094 L 346.125 315.746094 " fill-opacity="1" fill-rule="nonzero"/></g></svg>