<svg xmlns="http://www.w3.org/2000/svg" xmlns:xlink="http://www.w3.org/1999/xlink" width="500" zoomAndPan="magnify" viewBox="0 0 375 374.999991" height="500" preserveAspectRatio="xMidYMid meet" version="1.0"><defs><clipPath id="d1572aeaac"><path d="M 25 19 L 356.082031 19 L 356.082031 351 L 25 351 Z M 25 19 " clip-rule="nonzero"/></clipPath><clipPath id="833a26f9a4"><path d="M 23.082031 18.921875 L 356.082031 18.921875 L 356.082031 351.921875 L 23.082031 351.921875 Z M 23.082031 18.921875 " clip-rule="nonzero"/></clipPath></defs><g clip-path="url(#d1572aeaac)"><path fill="#639e1d" d="M 356.097656 185.421875 C 356.097656 276.796875 282.027344 350.851562 190.667969 350.851562 C 99.308594 350.851562 25.238281 276.796875 25.238281 185.421875 C 25.238281 94.066406 99.308594 19.996094 190.667969 19.996094 C 282.027344 20 356.097656 94.066406 356.097656 185.421875 " fill-opacity="1" fill-rule="nonzero"/></g><g clip-path="url(#833a26f9a4)"><path fill="#ffffff" d="M 356.097656 185.421875 C 356.097656 185.421875 356.066406 184.410156 356.011719 182.441406 C 355.910156 180.484375 355.980469 177.5625 355.605469 173.769531 C 355.097656 166.195312 353.839844 155.019531 349.988281 141.335938 C 349.496094 139.628906 348.988281 137.875 348.480469 136.082031 C 347.871094 134.316406 347.25 132.503906 346.628906 130.652344 C 346.035156 128.769531 345.253906 126.917969 344.5 125.019531 C 343.730469 123.109375 343.007812 121.140625 342.082031 119.214844 C 338.695312 111.367188 334.292969 103.171875 328.847656 94.933594 C 317.976562 78.472656 302.628906 61.664062 282.300781 48.285156 C 272.152344 41.609375 260.84375 35.777344 248.59375 31.230469 C 236.332031 26.640625 223.070312 23.585938 209.285156 22.054688 C 207.578125 21.808594 205.839844 21.726562 204.105469 21.601562 C 202.367188 21.480469 200.628906 21.363281 198.878906 21.25 C 197.109375 21.214844 195.328125 21.183594 193.550781 21.148438 L 190.886719 21.097656 C 190.046875 21.101562 189.117188 21.148438 188.25 21.171875 C 186.46875 21.226562 184.6875 21.285156 182.894531 21.339844 C 181.113281 21.414062 179.332031 21.613281 177.535156 21.746094 C 173.945312 21.957031 170.355469 22.527344 166.765625 22.992188 C 159.582031 24.164062 152.359375 25.613281 145.265625 27.796875 C 141.6875 28.753906 138.199219 30.085938 134.652344 31.273438 C 132.898438 31.9375 131.175781 32.664062 129.425781 33.359375 L 126.820312 34.402344 L 124.242188 35.585938 C 96.746094 47.9375 71.886719 68.640625 54.457031 95.019531 C 50.054688 101.59375 46.261719 108.574219 42.816406 115.738281 C 39.414062 122.921875 36.664062 130.433594 34.289062 138.066406 C 31.957031 145.695312 30.351562 153.554688 29.121094 161.460938 L 28.382812 167.425781 C 28.089844 169.425781 28.046875 171.394531 27.875 173.390625 C 27.484375 177.285156 27.554688 181.5 27.410156 185.4375 C 27.484375 193.445312 27.960938 201.464844 29.121094 209.386719 C 30.335938 217.304688 31.957031 225.152344 34.289062 232.796875 C 36.648438 240.425781 39.398438 247.925781 42.816406 255.121094 C 46.261719 262.289062 50.054688 269.265625 54.457031 275.839844 C 71.886719 302.21875 96.734375 322.921875 124.242188 335.289062 L 126.820312 336.460938 L 129.425781 337.515625 C 131.175781 338.199219 132.898438 338.9375 134.652344 339.601562 C 138.199219 340.789062 141.6875 342.121094 145.265625 343.078125 C 152.359375 345.25 159.582031 346.695312 166.765625 347.871094 C 170.355469 348.332031 173.945312 348.910156 177.523438 349.113281 C 179.316406 349.257812 181.082031 349.449219 182.878906 349.535156 C 184.675781 349.578125 186.46875 349.636719 188.265625 349.695312 C 189.148438 349.722656 190.074219 349.765625 190.914062 349.765625 L 193.5625 349.722656 C 195.328125 349.679688 197.097656 349.648438 198.847656 349.621094 C 200.601562 349.503906 202.351562 349.390625 204.089844 349.273438 C 205.839844 349.144531 207.578125 349.054688 209.300781 348.808594 C 223.085938 347.277344 236.347656 344.222656 248.59375 339.632812 C 260.84375 335.085938 272.167969 329.25 282.300781 322.589844 C 302.644531 309.199219 317.976562 292.375 328.847656 275.925781 C 334.292969 267.675781 338.695312 259.492188 342.082031 251.648438 C 343.007812 249.722656 343.730469 247.738281 344.5 245.839844 C 345.253906 243.929688 346.035156 242.078125 346.628906 240.207031 C 347.25 238.355469 347.871094 236.546875 348.480469 234.765625 C 348.988281 232.984375 349.496094 231.21875 349.988281 229.523438 C 353.839844 215.84375 355.097656 204.664062 355.605469 197.09375 C 355.980469 193.300781 355.910156 190.375 356.011719 188.40625 C 356.066406 186.4375 356.097656 185.421875 356.097656 185.421875 Z M 356.097656 185.421875 C 356.097656 185.421875 356.066406 186.4375 356.023438 188.40625 C 355.9375 190.375 356.023438 193.300781 355.664062 197.09375 C 355.183594 204.664062 353.984375 215.855469 350.203125 229.582031 C 349.710938 231.289062 349.21875 233.042969 348.710938 234.835938 C 348.121094 236.617188 347.511719 238.441406 346.875 240.296875 C 346.296875 242.179688 345.527344 244.046875 344.773438 245.957031 C 344.023438 247.855469 343.3125 249.835938 342.386719 251.777344 C 339.027344 259.667969 334.65625 267.878906 329.238281 276.171875 C 318.425781 292.75 303.0625 309.601562 282.835938 323.371094 C 272.714844 330.207031 261.394531 336.214844 249.089844 340.976562 C 236.796875 345.753906 223.433594 349.011719 209.519531 350.722656 C 207.78125 350.996094 206.015625 351.097656 204.25 351.257812 C 202.496094 351.386719 200.730469 351.53125 198.949219 351.675781 C 197.183594 351.734375 195.386719 351.792969 193.605469 351.835938 L 190.914062 351.9375 C 189.957031 351.9375 189.117188 351.910156 188.207031 351.878906 C 186.410156 351.851562 184.617188 351.820312 182.820312 351.777344 C 181.011719 351.734375 179.1875 351.546875 177.363281 351.445312 C 173.699219 351.257812 170.066406 350.734375 166.402344 350.300781 C 159.105469 349.203125 151.75 347.824219 144.511719 345.699219 C 140.847656 344.769531 137.285156 343.46875 133.667969 342.296875 C 131.886719 341.644531 130.105469 340.933594 128.324219 340.253906 L 125.644531 339.210938 L 123.027344 338.039062 C 108.925781 331.929688 95.488281 323.648438 83.269531 313.570312 C 77.128906 308.5625 71.46875 302.914062 66.054688 297.023438 C 60.667969 291.085938 55.773438 284.65625 51.226562 277.984375 C 46.710938 271.265625 42.773438 264.140625 39.210938 256.816406 C 35.679688 249.476562 32.824219 241.800781 30.363281 233.984375 C 27.933594 226.164062 26.238281 218.113281 24.941406 210.007812 C 23.722656 201.871094 23.191406 193.660156 23.074219 185.4375 C 23.210938 181.238281 23.175781 177.316406 23.585938 173.132812 C 23.78125 171.089844 23.847656 168.992188 24.140625 166.964844 L 24.933594 160.855469 C 26.226562 152.746094 27.933594 144.695312 30.351562 136.863281 C 32.8125 129.058594 35.679688 121.386719 39.210938 114.03125 C 42.773438 106.703125 46.695312 99.582031 51.226562 92.878906 C 55.773438 86.1875 60.652344 79.761719 66.039062 73.824219 C 71.46875 67.933594 77.128906 62.300781 83.253906 57.277344 C 95.472656 47.183594 108.910156 38.917969 123.011719 32.808594 L 125.644531 31.636719 L 128.324219 30.59375 C 130.105469 29.914062 131.871094 29.203125 133.667969 28.550781 C 137.285156 27.378906 140.847656 26.074219 144.511719 25.132812 C 151.75 23.019531 159.105469 21.640625 166.402344 20.539062 C 170.066406 20.113281 173.699219 19.582031 177.347656 19.40625 C 179.171875 19.292969 180.980469 19.117188 182.792969 19.0625 C 184.601562 19.027344 186.410156 18.992188 188.222656 18.953125 C 189.132812 18.941406 189.988281 18.910156 190.941406 18.921875 L 193.605469 19.003906 C 195.386719 19.054688 197.167969 19.113281 198.921875 19.167969 C 200.714844 19.308594 202.484375 19.453125 204.25 19.59375 C 206.015625 19.738281 207.78125 19.847656 209.503906 20.121094 C 223.433594 21.84375 236.796875 25.105469 249.101562 29.867188 C 261.410156 34.632812 272.714844 40.640625 282.835938 47.472656 C 303.0625 61.257812 318.425781 78.097656 329.238281 94.671875 C 334.65625 102.96875 339.027344 111.191406 342.386719 119.070312 C 343.3125 121.007812 344.023438 122.992188 344.789062 124.902344 C 345.527344 126.816406 346.296875 128.683594 346.875 130.550781 C 347.511719 132.417969 348.121094 134.226562 348.710938 136.007812 C 349.21875 137.804688 349.710938 139.570312 350.203125 141.277344 C 353.984375 155.003906 355.183594 166.183594 355.664062 173.769531 C 356.023438 177.5625 355.9375 180.484375 356.023438 182.441406 C 356.066406 184.410156 356.097656 185.421875 356.097656 185.421875 " fill-opacity="1" fill-rule="nonzero"/></g><path fill="#ffffff" d="M 190.667969 48.71875 C 115.28125 48.71875 53.949219 110.050781 53.949219 185.421875 C 53.949219 260.8125 115.28125 322.140625 190.667969 322.140625 C 266.042969 322.140625 327.371094 260.8125 327.371094 185.421875 C 327.371094 110.050781 266.042969 48.71875 190.667969 48.71875 Z M 190.667969 329.378906 C 111.285156 329.378906 46.710938 264.808594 46.710938 185.421875 C 46.710938 106.054688 111.285156 41.480469 190.667969 41.480469 C 270.039062 41.480469 334.609375 106.054688 334.609375 185.421875 C 334.609375 264.808594 270.039062 329.378906 190.667969 329.378906 " fill-opacity="1" fill-rule="nonzero"/><path fill="#ffffff" d="M 217.078125 224.5 C 216.46875 231.03125 212.761719 235.722656 206.144531 238.5 C 205.855469 225.847656 205.492188 213.222656 205.101562 200.726562 C 213.023438 206.183594 217.886719 215.699219 217.078125 224.5 Z M 168.90625 148.835938 C 168.210938 147.722656 167.15625 146.042969 169.53125 142.261719 C 170.863281 140.148438 172.832031 138.121094 175.175781 136.3125 C 175.335938 142.914062 175.507812 149.488281 175.699219 156.046875 C 173.003906 154.035156 170.703125 151.6875 168.90625 148.835938 Z M 217.597656 175.503906 C 213.183594 172.914062 208.636719 170.859375 204.105469 169.003906 C 203.699219 155.988281 203.320312 142.855469 203.03125 129.683594 C 205.652344 130.855469 207.375 132.894531 208.503906 136.125 C 211.066406 143.421875 219.046875 147.273438 226.34375 144.710938 C 233.652344 142.164062 237.492188 134.183594 234.941406 126.875 C 229.816406 112.25 218.046875 102.808594 202.597656 100.871094 C 202.570312 96.542969 202.539062 92.242188 202.539062 87.941406 C 202.539062 80.210938 196.269531 73.941406 188.539062 73.941406 C 180.808594 73.941406 174.539062 80.210938 174.539062 87.941406 C 174.539062 93.574219 174.582031 99.207031 174.640625 104.851562 C 162.738281 109.5 152.027344 117.519531 145.828125 127.367188 C 138.371094 139.238281 138.140625 152.484375 145.191406 163.71875 C 153.359375 176.734375 165.097656 183.382812 176.695312 188.289062 C 177.203125 204.359375 177.722656 220.691406 178.101562 237.082031 C 176.363281 236.269531 174.714844 235.359375 173.191406 234.300781 C 167.242188 230.148438 164.214844 224.832031 164.171875 218.519531 C 164.113281 210.816406 157.859375 204.621094 150.171875 204.621094 L 150.085938 204.621094 C 142.339844 204.664062 136.113281 210.976562 136.171875 218.707031 C 136.273438 234.1875 143.730469 247.867188 157.164062 257.25 C 163.507812 261.679688 170.890625 264.867188 178.59375 266.734375 C 178.652344 272.148438 178.679688 277.535156 178.679688 282.90625 C 178.679688 290.636719 184.964844 296.921875 192.695312 296.921875 C 200.425781 296.921875 206.679688 290.636719 206.679688 282.90625 C 206.679688 277.78125 206.652344 272.65625 206.609375 267.515625 C 209.242188 266.992188 211.820312 266.285156 214.3125 265.402344 C 232.121094 258.988281 243.296875 245.03125 244.960938 227.078125 C 246.828125 206.921875 235.824219 186.191406 217.597656 175.503906 " fill-opacity="1" fill-rule="nonzero"/></svg>