<svg xmlns="http://www.w3.org/2000/svg" xmlns:xlink="http://www.w3.org/1999/xlink" width="500" zoomAndPan="magnify" viewBox="0 0 375 374.999991" height="500" preserveAspectRatio="xMidYMid meet" version="1.0"><defs><clipPath id="a617f3f419"><path d="M 8.179688 14.070312 L 360.679688 14.070312 L 360.679688 366.570312 L 8.179688 366.570312 Z M 8.179688 14.070312 " clip-rule="nonzero"/></clipPath></defs><g clip-path="url(#a617f3f419)"><path fill="#ffffff" d="M 360.613281 190.371094 C 360.613281 193.253906 360.542969 196.136719 360.402344 199.015625 C 360.257812 201.898438 360.046875 204.773438 359.765625 207.644531 C 359.480469 210.511719 359.128906 213.375 358.707031 216.226562 C 358.28125 219.078125 357.789062 221.921875 357.226562 224.75 C 356.664062 227.578125 356.03125 230.390625 355.332031 233.1875 C 354.632812 235.984375 353.863281 238.765625 353.023438 241.523438 C 352.1875 244.285156 351.285156 247.019531 350.3125 249.738281 C 349.339844 252.453125 348.300781 255.140625 347.199219 257.804688 C 346.09375 260.46875 344.925781 263.105469 343.695312 265.714844 C 342.460938 268.320312 341.164062 270.894531 339.804688 273.4375 C 338.445312 275.980469 337.023438 278.492188 335.542969 280.964844 C 334.058594 283.4375 332.515625 285.875 330.914062 288.273438 C 329.3125 290.667969 327.652344 293.027344 325.933594 295.34375 C 324.214844 297.660156 322.441406 299.933594 320.613281 302.160156 C 318.785156 304.390625 316.902344 306.574219 314.964844 308.710938 C 313.027344 310.847656 311.039062 312.9375 309 314.976562 C 306.960938 317.015625 304.871094 319.003906 302.734375 320.9375 C 300.597656 322.875 298.417969 324.757812 296.1875 326.589844 C 293.957031 328.417969 291.683594 330.191406 289.367188 331.910156 C 287.050781 333.628906 284.695312 335.289062 282.296875 336.890625 C 279.898438 338.492188 277.464844 340.035156 274.988281 341.515625 C 272.515625 343 270.007812 344.421875 267.464844 345.78125 C 264.921875 347.140625 262.34375 348.4375 259.738281 349.667969 C 257.132812 350.902344 254.496094 352.070312 251.832031 353.175781 C 249.167969 354.277344 246.476562 355.316406 243.761719 356.285156 C 241.046875 357.257812 238.308594 358.164062 235.550781 359 C 232.789062 359.835938 230.011719 360.605469 227.214844 361.308594 C 224.414062 362.007812 221.601562 362.640625 218.773438 363.203125 C 215.945312 363.765625 213.105469 364.257812 210.253906 364.679688 C 207.398438 365.105469 204.539062 365.457031 201.667969 365.738281 C 198.796875 366.023438 195.921875 366.234375 193.042969 366.375 C 190.164062 366.515625 187.28125 366.585938 184.394531 366.585938 C 181.511719 366.585938 178.628906 366.515625 175.75 366.375 C 172.867188 366.234375 169.992188 366.023438 167.125 365.738281 C 164.253906 365.457031 161.390625 365.105469 158.539062 364.679688 C 155.6875 364.257812 152.847656 363.765625 150.019531 363.203125 C 147.1875 362.640625 144.375 362.007812 141.578125 361.308594 C 138.78125 360.605469 136.003906 359.835938 133.242188 359 C 130.484375 358.164062 127.746094 357.257812 125.03125 356.285156 C 122.316406 355.316406 119.625 354.277344 116.960938 353.175781 C 114.296875 352.070312 111.660156 350.902344 109.054688 349.667969 C 106.445312 348.4375 103.871094 347.140625 101.328125 345.78125 C 98.785156 344.421875 96.277344 343 93.800781 341.515625 C 91.328125 340.035156 88.894531 338.492188 86.496094 336.890625 C 84.097656 335.289062 81.742188 333.628906 79.425781 331.910156 C 77.109375 330.191406 74.835938 328.417969 72.605469 326.589844 C 70.375 324.757812 68.191406 322.875 66.054688 320.9375 C 63.917969 319.003906 61.832031 317.015625 59.792969 314.976562 C 57.753906 312.9375 55.765625 310.847656 53.828125 308.710938 C 51.890625 306.574219 50.007812 304.390625 48.179688 302.160156 C 46.347656 299.933594 44.574219 297.660156 42.859375 295.34375 C 41.140625 293.027344 39.480469 290.667969 37.878906 288.273438 C 36.273438 285.875 34.734375 283.4375 33.25 280.964844 C 31.765625 278.492188 30.347656 275.980469 28.988281 273.4375 C 27.628906 270.894531 26.332031 268.320312 25.097656 265.714844 C 23.863281 263.105469 22.695312 260.46875 21.59375 257.804688 C 20.488281 255.140625 19.453125 252.453125 18.480469 249.738281 C 17.507812 247.019531 16.605469 244.285156 15.765625 241.523438 C 14.929688 238.765625 14.160156 235.984375 13.460938 233.1875 C 12.757812 230.390625 12.128906 227.578125 11.566406 224.75 C 11.003906 221.921875 10.507812 219.078125 10.085938 216.226562 C 9.664062 213.375 9.308594 210.511719 9.027344 207.644531 C 8.746094 204.773438 8.53125 201.898438 8.390625 199.015625 C 8.25 196.136719 8.179688 193.253906 8.179688 190.371094 C 8.179688 187.488281 8.25 184.605469 8.390625 181.722656 C 8.53125 178.84375 8.746094 175.96875 9.027344 173.097656 C 9.308594 170.230469 9.664062 167.367188 10.085938 164.515625 C 10.507812 161.660156 11.003906 158.820312 11.566406 155.992188 C 12.128906 153.164062 12.757812 150.351562 13.460938 147.554688 C 14.160156 144.757812 14.929688 141.976562 15.765625 139.21875 C 16.605469 136.457031 17.507812 133.71875 18.480469 131.003906 C 19.453125 128.289062 20.488281 125.601562 21.59375 122.9375 C 22.695312 120.269531 23.863281 117.636719 25.097656 115.027344 C 26.332031 112.421875 27.628906 109.847656 28.988281 107.304688 C 30.347656 104.757812 31.765625 102.25 33.25 99.777344 C 34.734375 97.304688 36.273438 94.867188 37.878906 92.46875 C 39.480469 90.074219 41.140625 87.714844 42.859375 85.398438 C 44.574219 83.082031 46.347656 80.808594 48.179688 78.582031 C 50.007812 76.351562 51.890625 74.167969 53.828125 72.03125 C 55.765625 69.894531 57.753906 67.804688 59.792969 65.765625 C 61.832031 63.726562 63.917969 61.738281 66.054688 59.804688 C 68.191406 57.867188 70.375 55.984375 72.605469 54.152344 C 74.835938 52.324219 77.109375 50.550781 79.425781 48.832031 C 81.742188 47.113281 84.097656 45.453125 86.496094 43.851562 C 88.894531 42.25 91.328125 40.707031 93.800781 39.226562 C 96.277344 37.742188 98.785156 36.320312 101.328125 34.960938 C 103.871094 33.601562 106.445312 32.304688 109.054688 31.074219 C 111.660156 29.839844 114.296875 28.671875 116.960938 27.566406 C 119.625 26.464844 122.316406 25.425781 125.03125 24.457031 C 127.746094 23.484375 130.484375 22.578125 133.242188 21.742188 C 136.003906 20.90625 138.78125 20.136719 141.578125 19.433594 C 144.375 18.734375 147.1875 18.101562 150.019531 17.539062 C 152.847656 16.976562 155.6875 16.484375 158.539062 16.0625 C 161.390625 15.636719 164.253906 15.285156 167.125 15.003906 C 169.992188 14.71875 172.867188 14.507812 175.75 14.367188 C 178.628906 14.226562 181.511719 14.152344 184.394531 14.152344 C 187.28125 14.152344 190.164062 14.226562 193.042969 14.367188 C 195.921875 14.507812 198.796875 14.71875 201.667969 15.003906 C 204.539062 15.285156 207.398438 15.636719 210.253906 16.0625 C 213.105469 16.484375 215.945312 16.976562 218.773438 17.539062 C 221.601562 18.101562 224.414062 18.734375 227.214844 19.433594 C 230.011719 20.136719 232.789062 20.90625 235.550781 21.742188 C 238.308594 22.578125 241.046875 23.484375 243.761719 24.457031 C 246.476562 25.425781 249.167969 26.464844 251.832031 27.566406 C 254.496094 28.671875 257.132812 29.839844 259.738281 31.074219 C 262.34375 32.304688 264.921875 33.601562 267.464844 34.960938 C 270.007812 36.320312 272.515625 37.742188 274.988281 39.226562 C 277.464844 40.707031 279.898438 42.25 282.296875 43.851562 C 284.695312 45.453125 287.050781 47.113281 289.367188 48.832031 C 291.683594 50.550781 293.957031 52.324219 296.1875 54.152344 C 298.417969 55.984375 300.597656 57.867188 302.734375 59.804688 C 304.871094 61.738281 306.960938 63.726562 309 65.765625 C 311.039062 67.804688 313.027344 69.894531 314.964844 72.03125 C 316.902344 74.167969 318.785156 76.351562 320.613281 78.582031 C 322.441406 80.808594 324.214844 83.082031 325.933594 85.398438 C 327.652344 87.714844 329.3125 90.074219 330.914062 92.46875 C 332.515625 94.867188 334.058594 97.304688 335.542969 99.777344 C 337.023438 102.25 338.445312 104.757812 339.804688 107.304688 C 341.164062 109.847656 342.460938 112.421875 343.695312 115.027344 C 344.925781 117.636719 346.09375 120.269531 347.199219 122.9375 C 348.304688 125.601562 349.339844 128.289062 350.3125 131.003906 C 351.285156 133.71875 352.1875 136.457031 353.023438 139.21875 C 353.863281 141.976562 354.632812 144.757812 355.332031 147.554688 C 356.03125 150.351562 356.664062 153.164062 357.226562 155.992188 C 357.789062 158.820312 358.28125 161.660156 358.707031 164.515625 C 359.128906 167.367188 359.480469 170.230469 359.765625 173.097656 C 360.046875 175.96875 360.257812 178.84375 360.402344 181.722656 C 360.542969 184.605469 360.613281 187.488281 360.613281 190.371094 Z M 360.613281 190.371094 " fill-opacity="1" fill-rule="nonzero"/><path fill="#e60023" d="M 118.980469 353.945312 C 116.769531 333.894531 118.316406 314.742188 122.71875 296.238281 L 140.34375 220.238281 C 137.484375 210.984375 135.273438 200.421875 135.273438 189.839844 C 135.273438 165.171875 147.167969 147.546875 165.890625 147.546875 C 178.882812 147.546875 188.367188 156.582031 188.367188 173.976562 C 188.367188 179.492188 187.269531 185.652344 185.058594 192.695312 L 177.351562 218.03125 C 175.808594 222.878906 175.144531 227.5 175.144531 231.46875 C 175.144531 249.09375 188.582031 259.011719 205.757812 259.011719 C 236.375 259.011719 258.183594 227.296875 258.183594 186.101562 C 258.183594 140.285156 228.234375 110.984375 183.949219 110.984375 C 134.609375 110.984375 103.332031 143.144531 103.332031 187.863281 C 103.332031 205.917969 108.847656 222.664062 119.628906 234.125 C 116.105469 240.074219 112.351562 241.167969 106.636719 241.167969 C 89.011719 241.167969 72.265625 216.285156 72.265625 182.363281 C 72.265625 123.773438 119.179688 77.078125 185.042969 77.078125 C 254.214844 77.078125 297.605469 125.320312 297.605469 184.789062 C 297.605469 244.257812 255.3125 289.640625 209.710938 289.640625 C 191.65625 289.640625 175.792969 281.933594 164.777344 268.046875 L 155.742188 304.609375 C 150.890625 323.546875 143.632812 341.386719 131.953125 358.582031 C 148.480469 363.648438 164.777344 366.503906 184.378906 366.503906 C 281.742188 366.503906 360.597656 287.648438 360.597656 190.289062 C 360.597656 92.925781 281.757812 14.070312 184.394531 14.070312 C 87.035156 14.070312 8.179688 92.925781 8.179688 190.289062 C 8.179688 264.078125 53.5625 327.734375 118.980469 353.945312 " fill-opacity="1" fill-rule="nonzero"/></g></svg>