<svg xmlns="http://www.w3.org/2000/svg" xmlns:xlink="http://www.w3.org/1999/xlink" width="3964" zoomAndPan="magnify" viewBox="0 0 2973 1974.74992" height="2633" preserveAspectRatio="xMidYMid meet" version="1.0"><defs><clipPath id="d25fa775c5"><path d="M 106 86.125 L 1696 86.125 L 1696 1389 L 106 1389 Z M 106 86.125 " clip-rule="nonzero"/></clipPath><clipPath id="a799c64573"><path d="M 1183 514 L 2773 514 L 2773 1815.40625 L 1183 1815.40625 Z M 1183 514 " clip-rule="nonzero"/></clipPath></defs><g clip-path="url(#d25fa775c5)"><path fill="#1c3d86" d="M 325.855469 1388.316406 C 319.800781 1388.316406 313.816406 1385.851562 309.453125 1381.207031 C 302.621094 1373.957031 301.355469 1363.078125 306.390625 1354.453125 L 472.128906 1070.277344 L 251.011719 1070.277344 C 171.066406 1070.277344 106.042969 1005.261719 106.042969 925.324219 L 106.042969 231.449219 C 106.042969 151.507812 171.066406 86.457031 251.011719 86.457031 L 1550.46875 86.457031 C 1630.417969 86.457031 1695.472656 151.507812 1695.472656 231.449219 L 1695.472656 534.171875 C 1695.472656 546.597656 1685.371094 556.703125 1672.941406 556.703125 C 1660.480469 556.703125 1650.410156 546.597656 1650.410156 534.171875 L 1650.410156 231.449219 C 1650.410156 176.359375 1605.5625 131.511719 1550.46875 131.511719 L 251.011719 131.511719 C 195.917969 131.511719 151.105469 176.359375 151.105469 231.449219 L 151.105469 925.324219 C 151.105469 980.410156 195.917969 1025.222656 251.011719 1025.222656 L 511.382812 1025.222656 C 519.445312 1025.222656 526.90625 1029.550781 530.921875 1036.558594 C 534.933594 1043.5625 534.898438 1052.152344 530.816406 1059.121094 L 383.699219 1311.332031 L 945.449219 1027.6875 C 948.617188 1026.066406 952.066406 1025.222656 955.625 1025.222656 L 1189.871094 1025.222656 C 1202.335938 1025.222656 1212.402344 1035.324219 1212.402344 1047.75 C 1212.402344 1060.210938 1202.335938 1070.277344 1189.871094 1070.277344 L 960.976562 1070.277344 L 336.03125 1385.886719 C 332.792969 1387.542969 329.308594 1388.316406 325.855469 1388.316406 " fill-opacity="1" fill-rule="nonzero"/></g><path fill="#22a1e2" d="M 1405.039062 400.269531 L 360.710938 400.269531 C 348.28125 400.269531 338.179688 390.167969 338.179688 377.742188 C 338.179688 365.28125 348.28125 355.214844 360.710938 355.214844 L 1405.039062 355.214844 C 1417.5 355.214844 1427.570312 365.28125 1427.570312 377.742188 C 1427.570312 390.167969 1417.5 400.269531 1405.039062 400.269531 " fill-opacity="1" fill-rule="nonzero"/><path fill="#22a1e2" d="M 1087.851562 589.050781 L 360.710938 589.050781 C 348.28125 589.050781 338.179688 578.949219 338.179688 566.523438 C 338.179688 554.0625 348.28125 543.996094 360.710938 543.996094 L 1087.851562 543.996094 C 1100.277344 543.996094 1110.378906 554.0625 1110.378906 566.523438 C 1110.378906 578.949219 1100.277344 589.050781 1087.851562 589.050781 " fill-opacity="1" fill-rule="nonzero"/><path fill="#22a1e2" d="M 954.320312 777.832031 L 360.710938 777.832031 C 348.28125 777.832031 338.179688 767.730469 338.179688 755.304688 C 338.179688 742.84375 348.28125 732.777344 360.710938 732.777344 L 954.320312 732.777344 C 966.75 732.777344 976.851562 742.84375 976.851562 755.304688 C 976.851562 767.730469 966.75 777.832031 954.320312 777.832031 " fill-opacity="1" fill-rule="nonzero"/><g clip-path="url(#a799c64573)"><path fill="#22a1e2" d="M 1328.082031 559.199219 C 1272.988281 559.199219 1228.175781 604.011719 1228.175781 659.101562 L 1228.175781 1353.011719 C 1228.175781 1408.101562 1272.988281 1452.910156 1328.082031 1452.910156 L 1922.960938 1452.910156 C 1926.484375 1452.910156 1929.96875 1453.71875 1933.136719 1455.304688 L 2494.886719 1738.984375 L 2347.734375 1486.773438 C 2343.6875 1479.839844 2343.652344 1471.214844 2347.664062 1464.210938 C 2351.679688 1457.238281 2359.140625 1452.910156 2367.203125 1452.910156 L 2627.539062 1452.910156 C 2682.667969 1452.910156 2727.480469 1408.101562 2727.480469 1353.011719 L 2727.480469 659.101562 C 2727.480469 604.011719 2682.667969 559.199219 2627.539062 559.199219 Z M 2552.726562 1815.96875 C 2549.277344 1815.96875 2545.792969 1815.195312 2542.554688 1813.574219 L 1917.574219 1497.96875 L 1328.082031 1497.96875 C 1248.167969 1497.96875 1183.113281 1432.953125 1183.113281 1353.011719 L 1183.113281 659.101562 C 1183.113281 579.160156 1248.167969 514.144531 1328.082031 514.144531 L 2627.539062 514.144531 C 2707.484375 514.144531 2772.542969 579.160156 2772.542969 659.101562 L 2772.542969 1353.011719 C 2772.542969 1432.953125 2707.484375 1497.96875 2627.539062 1497.96875 L 2406.421875 1497.96875 L 2570.894531 1779.890625 C 2573.746094 1783.65625 2575.433594 1788.335938 2575.433594 1793.441406 C 2575.433594 1805.867188 2565.332031 1815.96875 2552.90625 1815.96875 C 2552.835938 1815.96875 2552.765625 1815.96875 2552.726562 1815.96875 " fill-opacity="1" fill-rule="nonzero"/></g><path fill="#1c3d86" d="M 1611.722656 895.085938 C 1554.515625 895.085938 1507.941406 941.621094 1507.941406 998.820312 C 1507.941406 1056.023438 1554.515625 1102.558594 1611.722656 1102.558594 C 1668.929688 1102.558594 1715.46875 1056.023438 1715.46875 998.820312 C 1715.46875 941.621094 1668.929688 895.085938 1611.722656 895.085938 Z M 1611.722656 1147.613281 C 1529.660156 1147.613281 1462.878906 1080.875 1462.878906 998.820312 C 1462.878906 916.769531 1529.660156 850.027344 1611.722656 850.027344 C 1693.785156 850.027344 1760.53125 916.769531 1760.53125 998.820312 C 1760.53125 1080.875 1693.785156 1147.613281 1611.722656 1147.613281 " fill-opacity="1" fill-rule="nonzero"/><path fill="#1c3d86" d="M 1978.445312 895.085938 C 1921.238281 895.085938 1874.699219 941.621094 1874.699219 998.820312 C 1874.699219 1056.023438 1921.238281 1102.558594 1978.445312 1102.558594 C 2035.6875 1102.558594 2082.226562 1056.023438 2082.226562 998.820312 C 2082.226562 941.621094 2035.6875 895.085938 1978.445312 895.085938 Z M 1978.445312 1147.613281 C 1896.417969 1147.613281 1829.636719 1080.875 1829.636719 998.820312 C 1829.636719 916.769531 1896.417969 850.027344 1978.445312 850.027344 C 2060.539062 850.027344 2127.285156 916.769531 2127.285156 998.820312 C 2127.285156 1080.875 2060.539062 1147.613281 1978.445312 1147.613281 " fill-opacity="1" fill-rule="nonzero"/><path fill="#1c3d86" d="M 2345.199219 895.085938 C 2287.992188 895.085938 2241.453125 941.621094 2241.453125 998.820312 C 2241.453125 1056.023438 2287.992188 1102.558594 2345.199219 1102.558594 C 2402.40625 1102.558594 2448.945312 1056.023438 2448.945312 998.820312 C 2448.945312 941.621094 2402.40625 895.085938 2345.199219 895.085938 Z M 2345.199219 1147.613281 C 2263.140625 1147.613281 2196.390625 1080.875 2196.390625 998.820312 C 2196.390625 916.769531 2263.140625 850.027344 2345.199219 850.027344 C 2427.261719 850.027344 2494.007812 916.769531 2494.007812 998.820312 C 2494.007812 1080.875 2427.261719 1147.613281 2345.199219 1147.613281 " fill-opacity="1" fill-rule="nonzero"/></svg>