<svg xmlns="http://www.w3.org/2000/svg" xmlns:xlink="http://www.w3.org/1999/xlink" width="500" zoomAndPan="magnify" viewBox="0 0 375 374.999991" height="500" preserveAspectRatio="xMidYMid meet" version="1.0"><defs><clipPath id="1320fd0ec5"><path d="M 14 125.113281 L 124 125.113281 L 124 202.363281 L 14 202.363281 Z M 14 125.113281 " clip-rule="nonzero"/></clipPath><clipPath id="e9db76df03"><path d="M 330 147 L 360.976562 147 L 360.976562 199 L 330 199 Z M 330 147 " clip-rule="nonzero"/></clipPath></defs><g clip-path="url(#1320fd0ec5)"><path fill="#e9333d" d="M 26.0625 200.03125 C 21.320312 198.742188 17.628906 194.957031 16.261719 190.285156 C 14.011719 181.664062 14.011719 163.699219 14.011719 163.699219 C 14.011719 163.699219 14.011719 145.738281 16.261719 137.199219 C 17.625 132.445312 21.320312 128.738281 26.0625 127.449219 C 34.574219 125.113281 68.949219 125.113281 68.949219 125.113281 C 68.949219 125.113281 103.40625 125.113281 111.917969 127.449219 C 116.734375 128.738281 120.347656 132.445312 121.636719 137.195312 C 123.960938 145.734375 123.960938 163.699219 123.960938 163.699219 C 123.960938 163.699219 123.960938 181.664062 121.636719 190.28125 C 120.347656 194.953125 116.734375 198.734375 111.917969 200.027344 C 103.40625 202.359375 68.949219 202.359375 68.949219 202.359375 C 68.949219 202.359375 34.574219 202.359375 26.0625 200.027344 Z M 58.027344 180.296875 L 86.539062 163.703125 L 58.027344 147.1875 Z M 58.027344 180.296875 " fill-opacity="1" fill-rule="nonzero"/></g><path fill="#ffffff" d="M 58.027344 180.296875 L 86.539062 163.699219 L 58.027344 147.1875 Z M 58.027344 180.296875 " fill-opacity="1" fill-rule="nonzero"/><path fill="#000000" d="M 147.367188 197.617188 L 147.367188 176.46875 L 134.636719 129.945312 L 145.683594 129.945312 L 150.257812 150.570312 C 151.304688 155.324219 152.386719 162.132812 152.867188 164.589844 L 152.949219 164.589844 C 153.429688 162.214844 154.476562 155.40625 155.558594 150.652344 L 160.296875 129.953125 L 171.34375 129.953125 L 158.453125 176.472656 L 158.453125 197.621094 L 147.367188 197.621094 Z M 147.367188 197.617188 " fill-opacity="1" fill-rule="nonzero"/><path fill="#000000" d="M 198.285156 170.871094 L 198.285156 174.816406 C 198.285156 192.378906 194.433594 198.339844 182.945312 198.339844 C 171.460938 198.339844 167.605469 192.21875 167.605469 174.816406 L 167.605469 170.871094 C 167.605469 152.902344 172.183594 147.1875 183.1875 147.1875 C 194.191406 147.1875 198.285156 153.152344 198.285156 170.871094 Z M 187.042969 167.085938 C 187.042969 157.582031 186.160156 154.84375 183.023438 154.84375 C 179.886719 154.84375 178.847656 157.582031 178.847656 167.085938 L 178.847656 178.449219 C 178.847656 188.277344 179.808594 190.773438 182.863281 190.773438 C 186.15625 190.773438 187.042969 188.277344 187.042969 178.449219 Z M 187.042969 167.085938 " fill-opacity="1" fill-rule="nonzero"/><path fill="#000000" d="M 202.9375 185.289062 L 202.9375 148.15625 L 214.023438 148.15625 L 214.023438 184.121094 C 214.023438 188.46875 214.988281 190.402344 217.28125 190.402344 C 219.007812 190.402344 220.695312 189.636719 221.898438 186.414062 L 221.898438 148.15625 L 232.984375 148.15625 L 232.984375 197.53125 L 223.582031 197.53125 L 222.945312 190.886719 L 222.902344 190.886719 C 221.539062 195.601562 218.847656 198.5 213.265625 198.5 C 205.875 198.5 202.945312 193.746094 202.945312 185.289062 Z M 202.9375 185.289062 " fill-opacity="1" fill-rule="nonzero"/><path fill="#000000" d="M 240.769531 197.53125 L 240.769531 139.453125 L 229.804688 139.453125 L 229.804688 129.945312 L 262.816406 129.945312 L 262.816406 139.453125 L 251.855469 139.453125 L 251.855469 197.53125 Z M 240.769531 197.53125 " fill-opacity="1" fill-rule="nonzero"/><path fill="#000000" d="M 259.761719 185.289062 L 259.761719 148.15625 L 270.847656 148.15625 L 270.847656 184.121094 C 270.847656 188.46875 271.8125 190.402344 274.101562 190.402344 C 275.828125 190.402344 277.515625 189.636719 278.71875 186.414062 L 278.71875 148.15625 L 289.804688 148.15625 L 289.804688 197.53125 L 280.40625 197.53125 L 279.765625 190.886719 L 279.726562 190.886719 C 278.363281 195.601562 275.671875 198.5 270.089844 198.5 C 262.699219 198.5 259.769531 193.746094 259.769531 185.289062 Z M 259.761719 185.289062 " fill-opacity="1" fill-rule="nonzero"/><path fill="#000000" d="M 326.703125 169.019531 L 326.703125 175.625 C 326.703125 191.574219 323.328125 198.265625 315.855469 198.265625 C 311.320312 198.265625 307.90625 196.25 306.140625 192.867188 L 306.097656 192.867188 L 305.375 197.539062 L 295.734375 197.539062 L 295.734375 127.449219 L 306.414062 127.449219 L 306.414062 141.625 C 306.414062 145.332031 306.496094 149.039062 306.175781 153.46875 L 306.292969 153.46875 C 308.136719 149.761719 311.316406 147.1875 316.289062 147.1875 C 323.441406 147.1875 326.691406 151.859375 326.691406 169.019531 Z M 315.375 169.019531 C 315.375 157.582031 314.410156 155.085938 311.320312 155.085938 C 309.234375 155.085938 307.226562 156.933594 306.421875 160.480469 L 306.421875 187.75 C 307.382812 189.644531 309.070312 190.449219 310.839844 190.449219 C 314.171875 190.449219 315.375 186.902344 315.375 176.191406 Z M 315.375 169.019531 " fill-opacity="1" fill-rule="nonzero"/><g clip-path="url(#e9db76df03)"><path fill="#000000" d="M 360.347656 176.390625 L 341.992188 176.390625 L 341.992188 179.089844 C 341.992188 187.792969 342.195312 190.769531 345.773438 190.769531 C 349.347656 190.769531 350.105469 188.027344 350.191406 182.390625 L 359.949219 182.832031 C 360.671875 193.585938 355.128906 198.339844 345.730469 198.339844 C 334.328125 198.339844 330.953125 190.851562 330.953125 177.234375 L 330.953125 168.613281 C 330.953125 154.277344 334.734375 147.265625 346.054688 147.265625 C 357.375 147.265625 360.347656 153.226562 360.347656 168.128906 Z M 341.992188 166.4375 L 341.992188 170.1875 L 349.300781 170.1875 L 349.300781 166.4375 C 349.300781 157.335938 348.945312 154.761719 345.605469 154.761719 C 342.269531 154.761719 341.992188 157.417969 341.992188 166.4375 Z M 341.992188 166.4375 " fill-opacity="1" fill-rule="nonzero"/></g></svg>